# AST/ASF file generated using VICON BodyLanguage
# -----------------------------------------------
:version 1.10
:name VICON
:units
  mass 1.0
  length 0.45
  angle deg
:documentation
   .ast/.asf automatically generated from VICON data using
   VICON BodyBuilder and BodyLanguage model FoxedUp or BRILLIANT.MOD
:root
   order TX TY TZ RX RY RZ
   axis XYZ
   position 0 0 0  
   orientation 0 0 0 
:bonedata
  begin
     id 1 
     name lhipjoint
     direction 0.535335 -0.74333 0.401095 
     length 2.04549 
     axis 0 0 0  XYZ
  end
  begin
     id 2 
     name lfemur
     direction 0.34202 -0.939693 0  
     length 6.95643  
     axis 0 0 20  XYZ
    dof rx ry rz
    limits (-160.0 20.0)
           (-70.0 70.0)
           (-60.0 70.0)
  end
  begin
     id 3 
     name ltibia
     direction 0.34192 -0.939729 0   
     length 5.55969   
     axis 0 0 20   XYZ
    dof rx
    limits (-10.0 170.0)
  end
  begin
     id 4 
     name lfoot
     direction 0.216943 -0.596046 0.773088   
     length 2.27918   
     axis -90 7.62852e-016 20   XYZ
    dof rx rz
    limits (-45.0 90.0)
           (-70.0 20.0)
  end
  begin
     id 5 
     name ltoes
     direction 1.53519e-011 -4.21748e-011 1   
     length 1.05562   
     axis -90 7.62852e-016 20   XYZ
    dof rx
    limits (-90.0 20.0)
  end
  begin
     id 6 
     name rhipjoint
     direction -0.576368 -0.719173 0.38806   
     length 2.1142  
     axis 0 0 0  XYZ 
  end
  begin
     id 7 
     name rfemur
     direction -0.34202 -0.939693 0   
     length 7.07928   
     axis 0 0 -20   XYZ
    dof rx ry rz
    limits (-160.0 20.0)
           (-70.0 70.0)
           (-70.0 60.0)
  end
  begin
     id 8 
     name rtibia
     direction -0.34202 -0.939693 0   
     length 5.79974   
     axis 0 0 -20   XYZ
    dof rx
    limits (-10.0 170.0)
 end
 begin
     id 9 
     name rfoot
     direction -0.189288 -0.520065 0.832888   
     length 2.42173  
     axis -90 -7.62852e-016 -20   XYZ
    dof rx rz
    limits (-45.0 90.0)
           (-20.0 70.0)
  end
  begin
     id 10 
     name rtoes
     direction -1.53574e-011 -4.21658e-011 1   
     length 1.14469   
     axis -90 -7.62852e-016 -20   XYZ
    dof rx
    limits (-90.0 20.0)
  end
  begin
     id 11 
     name lowerback
     direction -0.00135702 0.993803 0.111144   
     length 1.91308   
     axis 0 0 0   XYZ
    dof rx ry rz
    limits (-20.0 45.0)
           (-30.0 30.0)
           (-30.0 30.0)
  end
  begin
     id 12 
     name upperback
     direction -0.0056745 0.999813 0.0184631   
     length 1.9212   
     axis 0 0 0   XYZ
    dof rx ry rz
    limits (-20.0 45.0)
           (-30.0 30.0)
           (-30.0 30.0)
  end
  begin
     id 13 
     name thorax
     direction -0.00733434 0.999426 -0.0330788   
     length 1.94196   
     axis 0 0 0   XYZ
    dof rx ry rz
    limits (-20.0 45.0)
           (-30.0 30.0)
           (-30.0 30.0)
  end
  begin
     id 14 
     name lowerneck
     direction 0.0563074 0.996944 -0.0541571   
     length 2.34257   
     axis 0 0 0   XYZ
    dof rx ry rz
    limits (-20.0 45.0)
           (-30.0 30.0)
           (-30.0 30.0)
  end
  begin
     id 15 
     name upperneck
     direction -0.0544519 0.976166 -0.210085   
     length 2.32506   
     axis 0 0 0   XYZ
    dof rx ry rz
    limits (-20.0 45.0)
           (-30.0 30.0)
           (-30.0 30.0)
  end
  begin
     id 16
     name head
     direction -0.0226035 0.997615 -0.0652205  
     length 2.3648  
     axis 0 0 0   XYZ
    dof rx ry rz
    limits (-20.0 45.0)
           (-30.0 30.0)
           (-30.0 30.0)
  end
  begin
     id 17 
     name lclavicle
     direction 0.92109 0.381297 -0.0787716  
     length 4.0487  
     axis 0 0 0   XYZ
    dof ry rz
    limits (-20.0 10.0)
           (0.0 20.0)
  end
  begin
     id 18 
     name lhumerus
     direction 1 -4.48986e-011 3.56724e-027   
     length 4.94991   
     axis 180 -30 -90   XYZ
    dof rx ry rz
    limits (-60.0 90.0)
           (-90.0 90.0)
           (-90.0 90.0)
  end
  begin
     id 19
     name lradius
     direction 1 -4.48981e-011 8.62147e-027   
     length 2.7606   
     axis 180 -30 -90   XYZ
    dof rx
    limits (-10.0 170.0)
  end
  begin
     id 20
     name lwrist
     direction 1 -4.48989e-011 1.59799e-026   
     length 1.3803   
     axis -1.17785e-014 90 90   XYZ
    dof ry
    limits (-180.0 0.0)
 end
  begin
     id 21 
     name lhand
     direction 1 -4.48896e-011 3.19599e-026   
     length 0.843936   
     axis -2.03931e-014 90 90   XYZ
    dof rx rz
    limits (-90.0 90.0)
           (-45.0 45.0)
  end
  begin
     id 22 
     name lfingers
     direction 1 -4.48887e-011 6.39197e-026   
     length 0.680403   
     axis -4.07862e-014 90 90   XYZ
    dof rx
    limits (0.0 90.0)
  end
  begin
     id 23
     name lthumb
     direction 0.707107 -6.348e-011 0.707107   
     length 0.976926   
     axis -90 45 2.85299e-015   XYZ
    dof rx rz
    limits (-45.0 45.0)
           (-45.0 45.0)
  end
  begin
     id 24 
     name rclavicle
     direction -0.951104 0.307692 -0.026953   
     length 4.21801  
     axis 0 0 0   XYZ 
    dof ry rz
    limits (-10.0 20.0)
           (-20.0 0.0)
  end
  begin
     id 25 
     name rhumerus
     direction -1 -4.4896e-011 -1.8171e-018  
     length 4.32982   
     axis 180 30 90   XYZ
    dof rx ry rz
    limits (-90.0 60.0)
           (-90.0 90.0)
           (-90.0 90.0)
  end
  begin
     id 26 
     name rradius
     direction -1 -4.48959e-011 8.25165e-027   
     length 3.20057   
     axis 180 30 90   XYZ
    dof rx
    limits (-10.0 170.0)
  end
  begin
     id 27 
     name rwrist
     direction -1 -4.48997e-011 1.59799e-026   
     length 1.60029   
     axis -1.17785e-014 -90 -90   XYZ
    dof ry
    limits (-180.0 0.0)
  end
  begin
     id 28
     name rhand
     direction -1 -4.49023e-011 3.19599e-026   
     length 0.960433   
     axis -2.03931e-014 -90 -90   XYZ
    dof rx rz
    limits (-90.0 90.0)
           (-45.0 45.0)
  end
  begin
     id 29
     name rfingers
     direction -1 -4.48802e-011 6.39197e-026   
     length 0.774326   
     axis -4.07862e-014 -90 -90   XYZ
    dof rx
    limits (0.0 90.0)
  end
  begin
     id 30
     name rthumb
     direction -0.707107 -6.34876e-011 0.707107   
     length 1.11178   
     axis -90 -45 -2.85299e-015   XYZ
    dof rx rz
    limits (-45.0 45.0)
           (-45.0 45.0)
  end
:hierarchy
  begin
    root lhipjoint rhipjoint lowerback
    lhipjoint lfemur
    lfemur ltibia
    ltibia lfoot
    lfoot ltoes
    rhipjoint rfemur
    rfemur rtibia
    rtibia rfoot
    rfoot rtoes
    lowerback upperback
    upperback thorax
    thorax lowerneck lclavicle rclavicle
    lowerneck upperneck
    upperneck head
    lclavicle lhumerus
    lhumerus lradius
    lradius lwrist
    lwrist lhand lthumb
    lhand lfingers
    rclavicle rhumerus
    rhumerus rradius
    rradius rwrist
    rwrist rhand rthumb
    rhand rfingers
end

#!OML:ASF C:\KaitlinTest1\Natural Motions\Nikki\Session 2\Nikki.ASF
:FULLY-SPECIFIED
:DEGREES
249
root -14.0808 14.8979 4.88037 -211.121 87.118 -225.825
lowerback 0.716236 -1.91594 0.376516
upperback -0.175116 -2.54805 -2.11991
thorax -0.693634 -1.27345 -2.34792
lowerneck -26.4717 -14.7007 -5.72427
upperneck -0.978635 39.3588 2.83434
head 165.322 56.7084 -41.5368
rclavicle -1.88845e-014 -5.1684e-015
rhumerus -35.0243 -13.0734 -87.9912
rradius 23.8576
rwrist 11.7051
rhand -43.2076 7.70959
rfingers 7.12502
rthumb -16.0583 -21.645
lclavicle -1.88845e-014 -5.1684e-015
lhumerus -34.8473 10.4621 80.91
lradius 32.7476
lwrist -7.58875
lhand -35.3033 8.34293
lfingers 7.12502
lthumb -8.43745 38.1544
rfemur -41.9915 -5.38135 17.8899
rtibia 67.7689
rfoot -33.3993 -3.80117
rtoes 4.21423e-014
lfemur -42.2988 -0.2606 -21.5325
ltibia 60.0289
lfoot -21.6658 0.458999
ltoes -3.81667e-014
250
root -14.0816 14.8096 4.8859 -209.863 87.0166 -224.506
lowerback 0.834129 -1.94822 0.367345
upperback -0.0794924 -2.59038 -2.11353
thorax -0.662883 -1.29369 -2.33327
lowerneck -26.8254 -14.7766 -5.55111
upperneck -1.08859 39.1795 2.8211
head 165.111 56.8398 -41.7144
rclavicle 1.0635e-014 1.19271e-014
rhumerus -33.6989 -12.088 -89.1243
rradius 23.7816
rwrist 11.335
rhand -43.6378 8.30535
rfingers 7.12502
rthumb -16.4725 -21.0153
lclavicle 1.0635e-014 1.19271e-014
lhumerus -33.25 10.1944 81.651
lradius 32.3051
lwrist -8.71535
lhand -34.7304 7.5425
lfingers 7.12502
lthumb -7.88454 37.3755
rfemur -42.4477 -5.3992 17.9613
rtibia 69.0251
rfoot -34.009 -4.53541
rtoes 2.70347e-014
lfemur -42.9329 -0.492413 -21.5283
ltibia 61.4066
lfoot -22.1746 0.763695
ltoes 2.22639e-014
251
root -14.0807 14.7386 4.88975 -209.03 86.8735 -223.624
lowerback 1.09536 -1.96971 0.322865
upperback -0.277623 -2.62506 -2.11084
thorax -1.01166 -1.31408 -2.29094
lowerneck -26.584 -14.7057 -5.68414
upperneck -1.00546 39.513 2.91203
head 165.862 56.428 -41.2535
rclavicle 1.31198e-014 -3.18055e-015
rhumerus -32.9537 -11.3567 -89.9766
rradius 23.7698
rwrist 11.4572
rhand -44.2089 9.07296
rfingers 7.12502
rthumb -17.0223 -20.2012
lclavicle 1.31198e-014 -3.18055e-015
lhumerus -32.1549 9.68202 82.5468
lradius 32.11
lwrist -8.93936
lhand -34.5223 7.66831
lfingers 7.12502
lthumb -7.68367 37.5087
rfemur -43.0283 -5.36119 17.9052
rtibia 70.172
rfoot -34.3811 -4.7297
rtoes 8.34896e-014
lfemur -43.4505 -0.780527 -21.5495
ltibia 62.576
lfoot -22.6595 1.11576
ltoes 5.56597e-014
252
root -14.0769 14.6733 4.89487 -206.99 86.8779 -221.556
lowerback 1.14669 -1.95869 0.423116
upperback -0.261235 -2.6096 -2.06901
thorax -1.0255 -1.30721 -2.30293
lowerneck -26.8072 -14.8476 -5.50565
upperneck -1.06174 39.2653 2.86835
head 165.304 56.5474 -41.5861
rclavicle 2.26615e-014 -7.95139e-016
rhumerus -31.6221 -10.5107 -90.9485
rradius 23.6168
rwrist 11.4762
rhand -44.5073 9.48999
rfingers 7.12502
rthumb -17.3095 -19.7592
lclavicle 2.26615e-014 -7.95139e-016
lhumerus -30.5472 8.97507 83.5356
lradius 31.8666
lwrist -9.2177
lhand -33.9797 7.51773
lfingers 7.12502
lthumb -7.15998 37.3766
rfemur -43.4437 -5.28758 18.0795
rtibia 71.134
rfoot -34.7561 -5.20776
rtoes 4.6118e-014
lfemur -43.9581 -0.939863 -21.4411
ltibia 63.6291
lfoot -22.9434 1.41958
ltoes 2.22639e-014
